# Blender v2.75 (sub 0) OBJ File: 'full_block.blend'
# www.blender.org
o Cube
v 1.000000 -0.000000 -1.000000
v 1.000000 -0.000000 0.000000
v 1.000000 1.000000 -1.000000
v 1.000000 1.000000 0.000000
v 1.000000 1.000000 -1.000000
v 1.000000 1.000000 0.000000
v -0.000000 1.000000 -0.000000
v 0.000000 1.000000 -1.000000
v 1.000000 -0.000000 0.000000
v 0.000000 -0.000000 0.000000
v 1.000000 1.000000 0.000000
v -0.000000 1.000000 -0.000000
v 1.000000 -0.000000 -1.000000
v 0.000000 -0.000000 -1.000000
v 1.000000 1.000000 -1.000000
v 0.000000 1.000000 -1.000000
v 0.000000 -0.000000 0.000000
v 0.000000 -0.000000 -1.000000
v -0.000000 1.000000 -0.000000
v 0.000000 1.000000 -1.000000
v 1.000000 -0.000000 -1.000000
v 1.000000 -0.000000 0.000000
v 0.000000 -0.000000 0.000000
v 0.000000 -0.000000 -1.000000
vt 1.000000 0.333333
vt 0.666667 0.333333
vt 0.666667 0.666667
vt 0.333333 0.666667
vt 0.333333 0.333333
vt 0.666667 0.000000
vt 0.333333 0.000000
vt 0.666667 1.000000
vt 0.333333 1.000000
vt -0.000000 0.333333
vt 0.000000 -0.000000
vt 1.000000 0.666667
vt 0.000000 0.666667
vn 1.000000 0.000000 0.000000
vn 0.000000 1.000000 0.000000
vn -0.000000 0.000000 1.000000
vn 0.000000 0.000000 -1.000000
vn -1.000000 -0.000000 -0.000000
vn 0.000000 -1.000000 0.000000
s off
f 3/1/1 4/2/1 2/3/1
f 8/4/2 7/5/2 6/2/2
f 11/6/3 12/7/3 10/5/3
f 15/3/4 13/8/4 14/9/4
f 19/10/5 20/5/5 18/4/5
f 22/10/6 23/11/6 24/7/6
f 1/12/1 3/1/1 2/3/1
f 5/3/2 8/4/2 6/2/2
f 9/2/3 11/6/3 10/5/3
f 16/4/4 15/3/4 14/9/4
f 17/13/5 19/10/5 18/4/5
f 21/5/6 22/10/6 24/7/6
